<mxfile host="app.diagrams.net" agent="Mozilla/5.0 (Windows NT 10.0; Win64; x64) AppleWebKit/537.36 (KHTML, like Gecko) Chrome/123.0.0.0 Safari/537.36" version="24.7.10">
  <diagram name="第 1 页" id="q_uWG5S2N9TRRHDOflPN">
    <mxGraphModel dx="629" dy="642" grid="1" gridSize="10" guides="1" tooltips="1" connect="1" arrows="1" fold="1" page="1" pageScale="1" pageWidth="827" pageHeight="1169" math="0" shadow="0">
      <root>
        <mxCell id="0" />
        <mxCell id="1" parent="0" />
        <mxCell id="ljwR9uPZSq7H35jICRr4-1" value="opconfig-service" style="rounded=0;whiteSpace=wrap;html=1;" vertex="1" parent="1">
          <mxGeometry x="880" y="1145" width="130" height="30" as="geometry" />
        </mxCell>
        <mxCell id="ljwR9uPZSq7H35jICRr4-2" value="实验服务" style="rounded=0;whiteSpace=wrap;html=1;" vertex="1" parent="1">
          <mxGeometry x="1113" y="1145" width="130" height="30" as="geometry" />
        </mxCell>
        <mxCell id="ljwR9uPZSq7H35jICRr4-3" value="" style="endArrow=classic;html=1;rounded=0;" edge="1" parent="1">
          <mxGeometry width="50" height="50" relative="1" as="geometry">
            <mxPoint x="950" y="1275" as="sourcePoint" />
            <mxPoint x="1180" y="1275" as="targetPoint" />
          </mxGeometry>
        </mxCell>
        <mxCell id="ljwR9uPZSq7H35jICRr4-4" value="" style="endArrow=classic;html=1;rounded=0;" edge="1" parent="1">
          <mxGeometry width="50" height="50" relative="1" as="geometry">
            <mxPoint x="1180" y="1316" as="sourcePoint" />
            <mxPoint x="1380" y="1316" as="targetPoint" />
          </mxGeometry>
        </mxCell>
        <mxCell id="ljwR9uPZSq7H35jICRr4-5" value="" style="endArrow=none;html=1;rounded=0;" edge="1" parent="1">
          <mxGeometry width="50" height="50" relative="1" as="geometry">
            <mxPoint x="950" y="1420" as="sourcePoint" />
            <mxPoint x="950" y="1175" as="targetPoint" />
          </mxGeometry>
        </mxCell>
        <mxCell id="ljwR9uPZSq7H35jICRr4-6" value="" style="endArrow=none;html=1;rounded=0;" edge="1" parent="1">
          <mxGeometry width="50" height="50" relative="1" as="geometry">
            <mxPoint x="1180" y="1420" as="sourcePoint" />
            <mxPoint x="1180" y="1175" as="targetPoint" />
          </mxGeometry>
        </mxCell>
        <mxCell id="ljwR9uPZSq7H35jICRr4-7" value="&lt;span data-copy-origin=&quot;https://odocs.myoas.com&quot; data-docs-delta=&quot;[[20,&amp;quot;enableList&amp;quot;]]&quot;&gt;&lt;p style=&quot;line-height: 100%;margin-bottom: 0pt;margin-top: 0pt;font-size: 11pt;color: #494949;&quot; class=&quot;ql-direction-ltr&quot;&gt;&lt;span class=&quot;ql-author-307243&quot;&gt;enableMetricsList&lt;/span&gt;&lt;/p&gt;&lt;/span&gt;" style="text;html=1;align=center;verticalAlign=middle;whiteSpace=wrap;rounded=0;" vertex="1" parent="1">
          <mxGeometry x="990" y="1245" width="140" height="30" as="geometry" />
        </mxCell>
        <mxCell id="ljwR9uPZSq7H35jICRr4-8" value="伽利略" style="rounded=0;whiteSpace=wrap;html=1;" vertex="1" parent="1">
          <mxGeometry x="1320" y="1140" width="130" height="30" as="geometry" />
        </mxCell>
        <mxCell id="ljwR9uPZSq7H35jICRr4-9" value="" style="endArrow=none;html=1;rounded=0;" edge="1" parent="1">
          <mxGeometry width="50" height="50" relative="1" as="geometry">
            <mxPoint x="1385" y="1430" as="sourcePoint" />
            <mxPoint x="1384.5" y="1170" as="targetPoint" />
          </mxGeometry>
        </mxCell>
        <mxCell id="ljwR9uPZSq7H35jICRr4-10" value="&lt;span data-copy-origin=&quot;https://odocs.myoas.com&quot; data-docs-delta=&quot;[[20,&amp;quot;/api/v2/metric/enableList&amp;quot;]]&quot;&gt;&lt;p style=&quot;line-height: 100%;margin-bottom: 0pt;margin-top: 0pt;font-size: 11pt;color: #494949;&quot; class=&quot;ql-direction-ltr&quot;&gt;&lt;span class=&quot;ql-author-307243&quot;&gt;/api/v2/metric/enableList&lt;/span&gt;&lt;/p&gt;&lt;/span&gt;" style="text;html=1;align=center;verticalAlign=middle;whiteSpace=wrap;rounded=0;" vertex="1" parent="1">
          <mxGeometry x="1210" y="1290" width="140" height="30" as="geometry" />
        </mxCell>
      </root>
    </mxGraphModel>
  </diagram>
</mxfile>
